# xmcd
#
# Track frame offsets: 
#        150
#        26991
#        55531
#        80285
#        109962
#        138268
#        158820
#        183914
#        202756
#        225557
#
# Disc length: 3449 seconds
#
# Revision: 0
# Processed by: cddbd v1.5.2PL0 Copyright (c) Steve Scherf et al.
# Submitted via: ExactAudioCopy v1.0b1
#
DISCID=750d770a
DTITLE=Various Artist - Tinh Khuc Pham Duy [CD3)
DYEAR=2001
DGENRE=Blues
TTITLE0=Duy Khanh - Ngay Tro Ve
TTITLE1=Phuong Dung - Do Ai
TTITLE2=Y Lan - Em Le Chua Nay
TTITLE3=Tuan Anh - Ao Anh Sut Chi Duong Ta
TTITLE4=Khanh Ly, Le Thu - Hoa Rung Ven Song
TTITLE5=Da Nhat Yen, Thuy Vy, Kim Uyen - Tuoi Than Tien
TTITLE6=Hoa Mi - Ben Ni Ben No
TTITLE7=Y Lan - Mua Thu Chet
TTITLE8=Kieu Nga - Phuong Yeu
TTITLE9=Huong Lan - Con Quy Lay Chua Tren Troi
EXTD=
EXTT0=
EXTT1=
EXTT2=
EXTT3=
EXTT4=
EXTT5=
EXTT6=
EXTT7=
EXTT8=
EXTT9=
PLAYORDER=
